<svg width="123" height="226" viewBox="0 0 123 226" fill="none" xmlns="http://www.w3.org/2000/svg">
<path fill-rule="evenodd" clip-rule="evenodd" d="M122.733 225.511L0.985352 225.511L0.985366 61.0608C0.985369 27.4412 28.2394 0.187131 61.859 0.187134C95.4786 0.187137 122.733 27.4412 122.733 61.0608L122.733 225.511ZM91.8416 56.5179C91.8416 72.5751 78.8247 85.5919 62.7676 85.5919C46.7105 85.5919 33.6936 72.5751 33.6936 56.5179C33.6936 40.4608 46.7105 27.444 62.7676 27.444C78.8247 27.444 91.8416 40.4608 91.8416 56.5179ZM76.385 189.157C75.685 188.557 74.585 188.257 73.085 188.257H68.985V164.557C68.985 163.19 68.5683 162.107 67.735 161.307C66.935 160.507 65.8683 160.107 64.535 160.107C63.235 160.107 61.8517 160.524 60.385 161.357L52.385 166.007C51.2183 166.707 50.635 167.74 50.635 169.107C50.635 170.107 50.9683 171.024 51.635 171.857C52.3017 172.657 53.1017 173.057 54.035 173.057C54.635 173.057 55.2183 172.89 55.785 172.557L59.785 170.207V188.257H55.735C54.235 188.257 53.135 188.557 52.435 189.157C51.735 189.757 51.385 190.657 51.385 191.857C51.385 194.324 52.835 195.557 55.735 195.557H73.085C75.985 195.557 77.435 194.324 77.435 191.857C77.435 190.657 77.085 189.757 76.385 189.157Z" fill="#CADB89"/>
</svg>
