<svg width="123" height="226" viewBox="0 0 123 226" fill="none" xmlns="http://www.w3.org/2000/svg">
<path fill-rule="evenodd" clip-rule="evenodd" d="M122.718 225.511L0.970703 225.511L0.970718 61.0608C0.97072 27.4412 28.2248 0.187131 61.8444 0.187134C95.464 0.187137 122.718 27.4412 122.718 61.0608L122.718 225.511ZM91.8269 56.5179C91.8269 72.5751 78.8101 85.5919 62.7529 85.5919C46.6958 85.5919 33.6789 72.5751 33.6789 56.5179C33.6789 40.4608 46.6958 27.444 62.7529 27.444C78.8101 27.444 91.8269 40.4608 91.8269 56.5179ZM74.9959 189.157C74.2959 188.557 73.2126 188.257 71.7459 188.257H61.6959L68.7959 181.007C70.7626 178.94 72.1459 177.074 72.9459 175.407C73.7793 173.707 74.1959 171.84 74.1959 169.807C74.1959 167.84 73.6793 166.107 72.6459 164.607C71.6459 163.074 70.2126 161.907 68.3459 161.107C66.4793 160.274 64.3126 159.857 61.8459 159.857C59.9459 159.857 58.0126 160.157 56.0459 160.757C54.1126 161.357 52.3626 162.19 50.7959 163.257C50.1959 163.657 49.7793 164.09 49.5459 164.557C49.3459 165.024 49.2459 165.624 49.2459 166.357C49.2459 167.39 49.5293 168.29 50.0959 169.057C50.6626 169.79 51.3626 170.157 52.1959 170.157C52.5293 170.157 52.8459 170.107 53.1459 170.007C53.4459 169.907 53.7793 169.757 54.1459 169.557C54.5459 169.324 54.8126 169.174 54.9459 169.107L55.9459 168.607C57.0126 168.074 57.9459 167.674 58.7459 167.407C59.5793 167.107 60.4793 166.957 61.4459 166.957C62.6459 166.957 63.5626 167.257 64.1959 167.857C64.8626 168.457 65.1959 169.324 65.1959 170.457C65.1959 172.39 64.0959 174.507 61.8959 176.807L51.2959 187.857C50.1626 189.024 49.5959 190.324 49.5959 191.757C49.5959 192.857 49.9459 193.774 50.6459 194.507C51.3459 195.207 52.2959 195.557 53.4959 195.557H71.7459C73.2126 195.557 74.2959 195.257 74.9959 194.657C75.7293 194.057 76.0959 193.124 76.0959 191.857C76.0959 190.624 75.7293 189.724 74.9959 189.157Z" fill="#CADB89"/>
</svg>
