<svg width="203" height="203" viewBox="0 0 203 203" fill="none" xmlns="http://www.w3.org/2000/svg">
<path fill-rule="evenodd" clip-rule="evenodd" d="M30 0C13.4315 0 0 13.4314 0 30V172.556C0 189.125 13.4314 202.556 30 202.556H172.556C189.125 202.556 202.556 189.125 202.556 172.556V30C202.556 13.4315 189.125 0 172.556 0H30ZM107.186 112.967L117.064 96.6199C117.385 96.1514 117.515 95.5695 117.425 95.0015C117.335 94.4335 117.033 93.9256 116.585 93.5886C116.228 93.3296 115.804 93.1907 115.369 93.1907C114.934 93.1907 114.509 93.3296 114.152 93.5886L98.4521 103.873C97.1213 104.887 96.2281 106.405 95.9661 108.1C95.7041 109.795 96.0946 111.529 97.0528 112.925C98.011 114.322 99.4596 115.269 101.084 115.561C102.709 115.852 104.378 115.465 105.73 114.483C106.29 114.062 106.782 113.55 107.186 112.967ZM39.0944 109.561C39.0959 75.2201 66.9413 47.4063 101.278 47.4063C135.614 47.4063 163.459 75.2186 163.462 109.558L159.462 109.564H163.462C163.482 124.759 157.918 139.431 147.829 150.793C147.816 150.807 147.803 150.822 147.79 150.836L146.959 151.745L146.945 151.76C145.955 152.832 144.752 153.687 143.414 154.271C142.076 154.854 140.632 155.153 139.172 155.149C137.712 155.145 136.269 154.838 134.934 154.248C133.602 153.658 132.407 152.799 131.424 151.725L131.427 151.728L134.37 149.02L131.417 151.718L131.424 151.725C127.587 147.557 122.927 144.229 117.74 141.953C112.55 139.676 106.945 138.5 101.278 138.5C95.6112 138.5 90.006 139.676 84.8166 141.953C79.6288 144.229 74.9695 147.556 71.133 151.725L71.139 151.718L68.1861 149.02L71.1295 151.728L71.133 151.725C70.1495 152.799 68.9539 153.658 67.6218 154.248C66.2869 154.838 64.8439 155.145 63.3842 155.149C61.9245 155.153 60.4799 154.854 59.1419 154.271C57.8266 153.697 56.6425 152.861 55.6618 151.814C55.6819 151.835 55.7016 151.855 55.721 151.874L58.5494 149.046L55.6111 151.76L55.6618 151.814C55.3953 151.542 55.07 151.177 54.889 150.973L54.8882 150.972L54.8878 150.972L54.8187 150.894C54.7978 150.871 54.7812 150.852 54.7696 150.84C54.7554 150.824 54.7412 150.808 54.7273 150.793C44.6374 139.43 39.074 124.757 39.0944 109.561ZM39.0944 109.561V109.564H43.0944L39.0944 109.558L39.0944 109.561ZM101.278 55.4063C71.354 55.4063 47.0944 79.6446 47.0944 109.564L47.0944 109.57C47.076 122.794 51.914 135.565 60.6893 145.458C60.8933 145.681 61.0099 145.814 61.0967 145.913C61.2002 146.031 61.2614 146.101 61.3778 146.217C61.4152 146.255 61.4519 146.293 61.4877 146.332C61.7266 146.59 62.0166 146.797 62.3394 146.937C62.6621 147.078 63.0106 147.15 63.3627 147.149C63.7148 147.148 64.0628 147.074 64.3848 146.932C64.7068 146.789 64.9957 146.582 65.2332 146.322L65.2426 146.311C69.8291 141.327 75.3997 137.348 81.6023 134.627C87.8049 131.905 94.5047 130.5 101.278 130.5C108.051 130.5 114.751 131.905 120.954 134.627C127.156 137.348 132.727 141.327 137.314 146.311L137.323 146.322C137.56 146.582 137.849 146.789 138.171 146.932C138.493 147.074 138.841 147.148 139.193 147.149C139.546 147.15 139.894 147.078 140.217 146.937C140.537 146.798 140.825 146.594 141.063 146.338L141.068 146.332L141.866 145.459C150.642 135.566 155.48 122.795 155.462 109.57V109.564C155.462 79.6446 131.202 55.4063 101.278 55.4063ZM105.278 68.0302C105.278 65.8211 103.487 64.0302 101.278 64.0302C99.0689 64.0302 97.278 65.8211 97.278 68.0302V76.3421C97.278 78.5513 99.0689 80.3421 101.278 80.3421C103.487 80.3421 105.278 78.5513 105.278 76.3421V68.0302ZM130.526 109.59C130.526 107.381 132.317 105.59 134.526 105.59H142.838C145.047 105.59 146.838 107.381 146.838 109.59C146.838 111.799 145.047 113.59 142.838 113.59H134.526C132.317 113.59 130.526 111.799 130.526 109.59ZM59.7182 105.59C57.5091 105.59 55.7182 107.381 55.7182 109.59C55.7182 111.799 57.5091 113.59 59.7182 113.59H68.0302C70.2393 113.59 72.0302 111.799 72.0302 109.59C72.0302 107.381 70.2393 105.59 68.0302 105.59H59.7182ZM69.0617 77.3736C70.6238 75.8115 73.1565 75.8115 74.7186 77.3736L80.5967 83.2517C82.1588 84.8138 82.1588 87.3465 80.5967 88.9086C79.0346 90.4707 76.5019 90.4707 74.9398 88.9086L69.0617 83.0305C67.4996 81.4684 67.4996 78.9357 69.0617 77.3736ZM133.494 83.0305C135.056 81.4684 135.056 78.9357 133.494 77.3736C131.932 75.8115 129.4 75.8115 127.838 77.3736L121.959 83.2517C120.397 84.8138 120.397 87.3465 121.959 88.9086C123.521 90.4707 126.054 90.4707 127.616 88.9086L133.494 83.0305Z" fill="#E88E72"/>
</svg>
