<svg width="198" height="198" viewBox="0 0 198 198" fill="none" xmlns="http://www.w3.org/2000/svg">
<path fill-rule="evenodd" clip-rule="evenodd" d="M0 0H198V198H0V0ZM154 94.8718V94.829C153.987 93.4988 153.413 92.2299 152.421 91.3428L141.568 81.653C140.239 80.4672 138.203 80.583 137.016 81.9107C135.831 83.2384 135.947 85.2752 137.274 86.461L143.086 91.6492H87.7048C86.1438 81.0337 76.9919 72.8596 65.9703 72.8596C53.856 72.8596 44 82.734 44 94.8718C44 107.01 53.856 116.884 65.9703 116.884C76.9919 116.884 86.1438 108.71 87.7048 98.0945H143.086L137.275 103.283C135.947 104.468 135.831 106.506 137.017 107.833C137.653 108.546 138.535 108.91 139.422 108.91C140.186 108.91 140.952 108.639 141.568 108.091L152.421 98.4008C153.413 97.5137 153.987 96.2456 154 94.9146V94.8735V94.8718ZM65.9703 110.439C57.4093 110.439 50.4453 103.455 50.4453 94.8718C50.4453 86.2881 57.4093 79.3049 65.9703 79.3049C73.4286 79.3049 79.6758 84.6071 81.1604 91.6492H70.8152C69.0352 91.6492 67.5925 93.0918 67.5925 94.8718C67.5925 96.6518 69.0352 98.0945 70.8152 98.0945H81.1604C79.6758 105.137 73.4286 110.439 65.9703 110.439ZM111.877 72.1429C110.097 72.1429 108.655 70.7002 108.655 68.9202C108.655 67.1402 110.097 65.6975 111.877 65.6975H146.936C148.716 65.6975 150.159 67.1402 150.159 68.9202C150.159 70.7002 148.716 72.1429 146.936 72.1429H111.877ZM88.5507 61.4023H115.732C117.511 61.4023 118.954 59.9597 118.954 58.1797C118.954 56.3997 117.511 54.957 115.732 54.957H88.5507C86.7715 54.957 85.328 56.3997 85.328 58.1797C85.328 59.9597 86.7715 61.4023 88.5507 61.4023ZM131.441 61.4023H126.414C124.634 61.4023 123.192 59.9597 123.192 58.1797C123.192 56.3997 124.634 54.957 126.414 54.957H131.441C133.221 54.957 134.664 56.3997 134.664 58.1797C134.664 59.9597 133.221 61.4023 131.441 61.4023ZM90.0445 71.9263C88.2645 71.9263 86.8219 73.3698 86.8219 75.149C86.8219 76.929 88.2645 78.3716 90.0445 78.3716H95.0715C96.8516 78.3716 98.2942 76.929 98.2942 75.149C98.2942 73.3698 96.8516 71.9263 95.0715 71.9263H90.0445ZM102.599 107.371C102.599 109.151 101.156 110.593 99.376 110.593H94.349C92.569 110.593 91.1263 109.151 91.1263 107.371C91.1263 105.59 92.569 104.148 94.349 104.148H99.376C101.156 104.148 102.599 105.59 102.599 107.371ZM99.376 130.368H64.3875C62.6075 130.368 61.1648 131.812 61.1648 133.591C61.1648 135.371 62.6075 136.813 64.3875 136.813H99.376C101.156 136.813 102.599 135.371 102.599 133.591C102.599 131.812 101.156 130.368 99.376 130.368ZM95.5919 119.628H122.772C124.552 119.628 125.995 121.071 125.995 122.85C125.995 124.63 124.552 126.073 122.772 126.073H95.5919C93.8119 126.073 92.3692 124.63 92.3692 122.85C92.3692 121.071 93.8119 119.628 95.5919 119.628ZM84.9093 126.073C86.6893 126.073 88.1319 124.63 88.1319 122.85C88.1319 121.071 86.6893 119.628 84.9093 119.628H79.8823C78.1022 119.628 76.6596 121.071 76.6596 122.85C76.6596 124.63 78.1022 126.073 79.8823 126.073H84.9093ZM116.252 136.598H121.279C123.058 136.598 124.502 138.04 124.502 139.82C124.502 141.6 123.058 143.043 121.279 143.043H116.252C114.472 143.043 113.029 141.6 113.029 139.82C113.029 138.04 114.472 136.598 116.252 136.598Z" fill="white"/>
</svg>
