<svg width="204" height="203" viewBox="0 0 204 203" fill="none" xmlns="http://www.w3.org/2000/svg">
<path fill-rule="evenodd" clip-rule="evenodd" d="M0.885254 30C0.885254 13.4314 14.3167 0 30.8853 0H173.441C190.01 0 203.441 13.4315 203.441 30V172.556C203.441 189.125 190.01 202.556 173.441 202.556H30.8852C14.3167 202.556 0.885254 189.125 0.885254 172.556V30ZM147.312 39H124.87C119.636 39 115.378 43.2581 115.378 48.4921V70.9344C115.378 76.1683 119.636 80.4264 124.87 80.4264H147.312C152.546 80.4264 156.804 76.1683 156.804 70.9344V48.4921C156.805 43.2581 152.547 39 147.312 39ZM149.539 70.9344C149.539 72.162 148.54 73.1608 147.312 73.1608H124.87C123.643 73.1608 122.644 72.162 122.644 70.9344V48.4921C122.644 47.2644 123.643 46.2656 124.87 46.2656H147.312C148.54 46.2656 149.539 47.2644 149.539 48.4921V70.9344ZM125.098 90.692C126.541 89.9284 128.185 89.4958 129.928 89.4958C135.639 89.4958 140.286 94.1425 140.287 99.8537V99.8542L140.283 124.4C140.281 137.573 136.455 150.355 129.218 161.363C128.546 162.384 127.405 163 126.182 163H85.3223C84.3933 163 83.4996 162.644 82.8249 162.005C82.2587 161.469 68.9611 148.715 66.238 131.669L61.464 111.237C60.7982 108.388 61.385 105.532 63.0745 103.403C64.6829 101.376 67.159 100.171 69.918 100.061C72.484 99.5667 75.1008 100.049 77.3323 101.435C78.025 101.866 78.6559 102.368 79.2175 102.931V80.4264H78.3546C73.1207 80.4264 68.8625 76.1683 68.8625 70.9344V48.4921C68.8625 43.2581 73.1207 39 78.3546 39H100.797C106.031 39 110.289 43.2581 110.289 48.4921V70.9341C110.289 76.168 106.031 80.4262 100.797 80.4262H99.9337V83.6599C100.911 83.3537 101.95 83.1886 103.026 83.1886C106.446 83.1886 109.484 84.8543 111.372 87.4174C112.879 86.5598 114.622 86.0696 116.477 86.0696C120.069 86.0696 123.24 87.9071 125.098 90.692ZM73.3944 130.41C75.2926 142.563 83.9208 152.62 86.8486 155.734H124.186C129.968 146.295 133.015 135.503 133.017 124.4L133.021 99.8532C133.021 98.1487 131.633 96.7612 129.928 96.7612C128.223 96.7612 126.835 98.1487 126.835 99.854V105.755C126.835 107.762 125.209 109.388 123.202 109.388C121.196 109.388 119.57 107.762 119.57 105.755V99.854V96.428C119.57 94.7227 118.182 93.3353 116.477 93.3353C114.772 93.3353 113.384 94.7227 113.384 96.428V103.218C113.384 105.225 111.758 106.851 109.752 106.851C107.745 106.851 106.119 105.225 106.119 103.218V96.428V93.5469C106.119 91.8417 104.731 90.4544 103.026 90.4544C101.321 90.4544 99.9335 91.8417 99.9335 93.5469V102.805C99.9335 104.811 98.307 106.438 96.3007 106.438C94.2944 106.438 92.6679 104.811 92.6679 102.805V93.5469V68.7387C92.6679 67.0334 91.2804 65.646 89.5751 65.646C87.8699 65.646 86.4824 67.0334 86.4824 68.7387V126.475C86.4824 127.517 86.0351 128.509 85.2538 129.199C84.4725 129.888 83.433 130.209 82.3986 130.08L82.1075 130.043C80.5987 129.855 79.3672 128.746 79.0211 127.265L74.8775 109.531C74.6896 108.726 74.1999 108.043 73.498 107.607C72.7962 107.171 71.9512 107.117 71.127 107.167C70.9445 107.178 70.8182 107.196 70.6807 107.215C70.572 107.231 70.4564 107.247 70.3004 107.262C69.5983 107.329 69.073 107.531 68.7659 107.919C68.4588 108.306 68.3782 108.897 68.5385 109.584L73.3425 130.144C73.3631 130.232 73.3803 130.321 73.3944 130.41ZM76.1282 48.4921V70.9344C76.1282 72.162 77.1269 73.1608 78.3541 73.1608H79.217V68.7384C79.217 63.0269 83.8639 58.3801 89.5754 58.3801C95.2869 58.3801 99.9337 63.0269 99.9337 68.7384V73.1608H100.797C102.024 73.1608 103.023 72.162 103.023 70.9344V48.4921C103.023 47.2644 102.024 46.2656 100.797 46.2656H78.3546C77.1269 46.2656 76.1282 47.2644 76.1282 48.4921Z" fill="#E6B66F"/>
</svg>
