<svg width="198" height="198" viewBox="0 0 198 198" fill="none" xmlns="http://www.w3.org/2000/svg">
<path fill-rule="evenodd" clip-rule="evenodd" d="M0 0H198V198H0V0ZM132.987 44H113.078C108.435 44 104.658 47.7774 104.658 52.4204V72.3289C104.658 76.9719 108.435 80.7493 113.078 80.7493H132.987C137.63 80.7493 141.407 76.9719 141.407 72.3289V52.4204C141.407 47.7774 137.63 44 132.987 44ZM134.962 72.3289C134.962 73.4179 134.076 74.3039 132.987 74.3039H113.078C111.989 74.3039 111.103 73.4179 111.103 72.3289V52.4204C111.103 51.3313 111.989 50.4453 113.078 50.4453H132.987C134.076 50.4453 134.962 51.3313 134.962 52.4204V72.3289ZM113.281 89.8558C114.561 89.1784 116.019 88.7947 117.565 88.7947C122.632 88.7947 126.754 92.9167 126.754 97.9836L126.751 119.758C126.749 131.444 123.355 142.782 116.935 152.547C116.339 153.454 115.327 154 114.242 154H77.9956C77.1714 154 76.3787 153.684 75.7801 153.118C75.2778 152.642 63.4816 141.328 61.0659 126.206L56.8309 108.081C56.2403 105.554 56.7609 103.021 58.2596 101.132C59.6864 99.3333 61.8829 98.265 64.3304 98.1668C66.6067 97.7286 68.9281 98.1565 70.9077 99.3863C71.5222 99.7678 72.0818 100.213 72.58 100.713V80.7493H71.8145C67.1716 80.7493 63.3942 76.9719 63.3942 72.3289V52.4204C63.3942 47.7774 67.1716 44 71.8145 44H91.7228C96.3658 44 100.143 47.7774 100.143 52.4204V72.3286C100.143 76.9716 96.3658 80.749 91.7228 80.749H90.9573V83.6176C91.824 83.3461 92.7459 83.1995 93.7007 83.1995C96.7343 83.1995 99.4294 84.6772 101.104 86.9509C102.441 86.1902 103.987 85.7553 105.633 85.7553C108.819 85.7553 111.632 87.3853 113.281 89.8558ZM67.4143 125.09C69.0983 135.871 76.7523 144.792 79.3495 147.555H112.471C117.6 139.181 120.304 129.607 120.305 119.758L120.309 97.9827C120.309 96.4706 119.078 95.2398 117.565 95.2398C116.052 95.2398 114.822 96.4706 114.822 97.9833V103.218C114.822 104.998 113.379 106.441 111.599 106.441C109.819 106.441 108.376 104.998 108.376 103.218V97.9833V94.9442C108.376 93.4315 107.146 92.2006 105.633 92.2006C104.12 92.2006 102.889 93.4315 102.889 94.9442V100.968C102.889 102.748 101.446 104.191 99.6667 104.191C97.8869 104.191 96.444 102.748 96.444 100.968V94.9442V92.3884C96.444 90.8757 95.2131 89.6451 93.7004 89.6451C92.1877 89.6451 90.9571 90.8757 90.9571 92.3884V100.601C90.9571 102.381 89.5142 103.824 87.7344 103.824C85.9547 103.824 84.5118 102.381 84.5118 100.601V92.3884V70.3811C84.5118 68.8684 83.2809 67.6375 81.7682 67.6375C80.2556 67.6375 79.0247 68.8684 79.0247 70.3811V121.599C79.0247 122.523 78.6279 123.403 77.9348 124.015C77.2417 124.627 76.3196 124.911 75.402 124.797L75.1437 124.764C73.8053 124.597 72.7128 123.613 72.4058 122.3L68.73 106.567C68.5633 105.854 68.1289 105.248 67.5063 104.861C66.8837 104.475 66.134 104.426 65.403 104.471C65.1131 104.488 64.9832 104.525 64.6697 104.555C64.0469 104.615 63.5809 104.794 63.3084 105.137C63.036 105.481 62.9645 106.006 63.1067 106.615L67.3683 124.854C67.3866 124.932 67.4019 125.01 67.4143 125.09ZM69.8395 52.4204V72.3289C69.8395 73.4179 70.7255 74.3039 71.8141 74.3039H72.5796V70.3809C72.5796 65.3142 76.7018 61.192 81.7684 61.192C86.8351 61.192 90.9573 65.3142 90.9573 70.3809V74.3039H91.7228C92.8118 74.3039 93.6979 73.4179 93.6979 72.3289V52.4204C93.6979 51.3313 92.8118 50.4453 91.7228 50.4453H71.8145C70.7255 50.4453 69.8395 51.3313 69.8395 52.4204Z" fill="white"/>
</svg>
