<svg width="204" height="203" viewBox="0 0 204 203" fill="none" xmlns="http://www.w3.org/2000/svg">
<path fill-rule="evenodd" clip-rule="evenodd" d="M0.770508 30C0.770508 13.4314 14.202 0 30.7705 0H173.327C189.895 0 203.327 13.4315 203.327 30V172.556C203.327 189.125 189.895 202.556 173.327 202.556H30.7705C14.2019 202.556 0.770508 189.125 0.770508 172.556V30ZM55.2938 115.664C55.2938 141.577 76.268 162.659 102.049 162.659C127.829 162.659 148.803 141.577 148.803 115.664C148.803 94.22 134.44 76.0849 114.875 70.4676C118.061 67.2214 120.031 62.7773 120.031 57.88C120.031 47.9644 111.964 39.8974 102.049 39.8974C92.1329 39.8974 84.0659 47.9644 84.0659 57.88C84.0659 62.7773 86.0361 67.2214 89.2224 70.4676C69.6576 76.0849 55.2938 94.22 55.2938 115.664ZM102.049 47.0904C107.998 47.0904 112.838 51.9306 112.838 57.88C112.838 62.5687 109.831 66.5663 105.645 68.051V57.88C105.645 55.8938 104.035 54.2835 102.049 54.2835C100.062 54.2835 98.452 55.8938 98.452 57.88V68.051C94.2659 66.5663 91.259 62.5687 91.259 57.88C91.259 51.9306 96.0992 47.0904 102.049 47.0904ZM102.049 75.8626C123.863 75.8626 141.61 93.7174 141.61 115.664C141.61 137.611 123.863 155.466 102.049 155.466C80.2342 155.466 62.4868 137.611 62.4868 115.664C62.4868 93.7174 80.2342 75.8626 102.049 75.8626ZM107.52 121.888L87.4591 133.925C86.3354 134.599 84.9074 134.412 83.9932 133.498C83.0727 132.577 82.8968 131.148 83.5665 130.032L95.6035 109.971C95.8517 109.558 96.1969 109.225 96.5767 108.998L116.638 96.9608C117.755 96.291 119.183 96.4669 120.104 97.3875C121.024 98.308 121.2 99.737 120.531 100.853L108.494 120.915C108.262 121.299 107.923 121.646 107.52 121.888ZM102.612 111.994L105.498 114.88L109.826 107.665L102.612 111.994ZM101.485 118.892L98.5995 116.006L94.271 123.22L101.485 118.892ZM102.049 90.4885C104.035 90.4885 105.645 88.8783 105.645 86.8919C105.645 84.9056 104.035 83.2954 102.049 83.2954C100.062 83.2954 98.452 84.9056 98.452 86.8919C98.452 88.8783 100.062 90.4885 102.049 90.4885ZM105.645 144.436C105.645 146.423 104.035 148.033 102.049 148.033C100.062 148.033 98.452 146.423 98.452 144.436C98.452 142.45 100.062 140.84 102.049 140.84C104.035 140.84 105.645 142.45 105.645 144.436ZM73.2764 119.261C75.2627 119.261 76.8729 117.65 76.8729 115.664C76.8729 113.678 75.2627 112.068 73.2764 112.068C71.2901 112.068 69.6799 113.678 69.6799 115.664C69.6799 117.65 71.2901 119.261 73.2764 119.261ZM134.417 115.664C134.417 117.65 132.807 119.261 130.821 119.261C128.834 119.261 127.224 117.65 127.224 115.664C127.224 113.678 128.834 112.068 130.821 112.068C132.807 112.068 134.417 113.678 134.417 115.664Z" fill="#DAF277"/>
</svg>
