<svg width="198" height="198" viewBox="0 0 198 198" fill="none" xmlns="http://www.w3.org/2000/svg">
<path fill-rule="evenodd" clip-rule="evenodd" d="M0 0H198V198H0V0ZM107.499 59.2439C108.663 57.5698 109.349 55.5383 109.349 53.3488C109.349 47.6425 104.706 43 99.0001 43C93.2938 43 88.6513 47.6425 88.6513 53.3488C88.6513 55.5383 89.3368 57.5698 90.5015 59.2439C67.9335 63.2706 50.747 83.0393 50.747 106.747C50.747 133.354 72.3932 155 98.9999 155C125.607 155 147.253 133.354 147.253 106.747C147.253 83.0393 130.066 63.2706 107.499 59.2439ZM142.083 104.201H135.216C133.963 86.2065 119.541 71.7842 101.546 70.5314V63.6644C123.321 64.9377 140.809 82.4261 142.083 104.201ZM99.0001 48.0931C101.898 48.0931 104.256 50.4508 104.256 53.349C104.256 55.9053 102.42 58.0388 99.9985 58.5069C99.6662 58.5002 99.3339 58.4943 99.0001 58.4943C98.6663 58.4943 98.334 58.5002 98.0017 58.5069C95.5797 58.0388 93.7442 55.9056 93.7442 53.349C93.7442 50.451 96.1019 48.0931 99.0001 48.0931ZM96.4536 63.6644V70.5312C78.4593 71.7839 64.0369 86.2065 62.7841 104.2H55.9172C57.1907 82.4261 74.6787 64.9377 96.4536 63.6644ZM96.4536 149.83C74.6789 148.557 57.1907 131.068 55.9174 109.294H62.7841C64.0369 127.288 78.4593 141.71 96.4536 142.963V149.83ZM99.0001 137.961C81.7889 137.961 67.7863 123.959 67.7863 106.747C67.7863 89.5357 81.7887 75.5335 99.0001 75.5335C116.212 75.5335 130.214 89.5357 130.214 106.747C130.214 123.959 116.211 137.961 99.0001 137.961ZM101.547 149.83V142.963C119.541 141.71 133.963 127.288 135.216 109.294H142.083C140.809 131.068 123.321 148.557 101.547 149.83ZM96.7503 82.1715C96.7503 80.7651 97.8904 79.625 99.2967 79.625C100.703 79.625 101.843 80.7647 101.843 82.1713C101.843 83.5778 100.703 84.7204 99.2967 84.7204C97.8904 84.7204 96.7503 83.5829 96.7503 82.1765V82.1715ZM93.424 82.7282C92.9609 81.4002 91.5086 80.6995 90.181 81.1624C79.081 85.0336 71.6232 95.5369 71.6232 107.299C71.6232 108.705 72.7633 109.845 74.1696 109.845C75.576 109.845 76.7161 108.705 76.7161 107.299C76.7161 97.7007 82.801 89.1295 91.8582 85.9712C93.1862 85.5079 93.8873 84.0558 93.424 82.7282ZM96.1568 131.323C96.1568 129.916 97.2969 128.774 98.7033 128.774C100.11 128.774 101.25 129.911 101.25 131.318V131.323C101.25 132.729 100.11 133.869 98.7033 133.869C97.2969 133.869 96.1568 132.729 96.1568 131.323ZM123.83 103.649C122.424 103.649 121.284 104.79 121.284 106.196C121.284 115.794 115.199 124.365 106.142 127.523C104.814 127.986 104.113 129.438 104.576 130.766C104.942 131.817 105.927 132.475 106.98 132.475C107.258 132.475 107.541 132.429 107.819 132.332C118.919 128.461 126.376 117.958 126.376 106.196C126.377 104.789 125.237 103.649 123.83 103.649ZM111.612 90.7837C112.572 90.3663 113.688 90.578 114.429 91.3178C115.169 92.0577 115.381 93.1746 114.964 94.1342L114.688 94.7686C113.198 98.1931 112.543 102.001 112.739 106.087C112.924 109.953 111.462 113.739 108.726 116.474C105.991 119.21 102.205 120.671 98.3391 120.487C94.2526 120.29 90.445 120.946 87.0207 122.436L86.387 122.711C86.0598 122.854 85.7144 122.923 85.3718 122.923C84.7096 122.923 84.0582 122.665 83.5706 122.177C82.8306 121.437 82.6184 120.32 83.0356 119.361L83.3114 118.727C84.8006 115.302 85.4565 111.494 85.2605 107.408C85.0752 103.542 86.5375 99.7561 89.2728 97.0206C92.008 94.2854 95.7924 92.8215 99.6603 93.0083C103.747 93.2041 107.554 92.5485 110.978 91.0595L111.612 90.7837ZM105.125 112.873C106.848 111.15 107.768 108.766 107.652 106.331C107.5 103.168 107.782 100.131 108.492 97.2551C105.616 97.965 102.58 98.2472 99.4168 98.0956C99.2792 98.089 99.1412 98.0857 99.0036 98.0857C96.7133 98.0857 94.4993 98.997 92.8747 100.622C91.1523 102.344 90.2315 104.729 90.3481 107.164C90.4995 110.327 90.2178 113.363 89.5077 116.239C92.3838 115.529 95.4209 115.248 98.5834 115.399C101.018 115.516 103.403 114.595 105.125 112.873Z" fill="white"/>
</svg>
