<svg width="198" height="198" viewBox="0 0 198 198" fill="none" xmlns="http://www.w3.org/2000/svg">
<path fill-rule="evenodd" clip-rule="evenodd" d="M198 0H0V198H198V0ZM117.773 109.727H131.182C135.741 109.727 139.227 113.214 139.227 117.773C139.227 122.332 135.741 125.818 131.182 125.818H66.8183C62.2591 125.818 58.7728 122.332 58.7728 117.773C58.7728 113.213 62.2591 109.727 66.8183 109.727V72.1817C66.8183 54.4817 81.3 40 99 40C116.7 40 131.182 54.4817 131.182 72.1817V101.682C131.182 103.291 130.109 104.363 128.5 104.363C126.891 104.363 125.818 103.291 125.818 101.682V72.1817C125.818 57.4317 113.75 45.3635 99 45.3635C84.25 45.3635 72.1817 57.4317 72.1817 72.1817V110.8C72.1817 112.677 72.1817 115.091 69.5 115.091H66.8183C65.2094 115.091 64.1365 116.163 64.1365 117.772C64.1365 119.381 65.2091 120.454 66.8183 120.454H131.182C132.791 120.454 133.863 119.382 133.863 117.772C133.863 116.163 132.791 115.091 131.182 115.091H80.2272C78.6183 115.091 77.5454 114.018 77.5454 112.409C77.5454 110.8 78.618 109.727 80.2272 109.727V85.5909C80.2272 83.982 81.2998 82.9091 82.9089 82.9091H101.682C102.755 82.9091 103.559 83.7137 104.095 84.5183C104.632 85.3228 104.363 86.3954 103.827 87.2L95.7817 97.9272C94.9772 98.9998 93.0998 99.268 92.0272 98.4635C90.9546 97.6589 90.6863 95.7817 91.4909 94.7089L96.318 88.2726H85.5909V109.727H112.409V99H104.364C103.291 99 102.486 98.1952 101.95 97.3906C101.413 96.5861 101.682 95.5135 102.218 94.7089L110.263 83.9817C111.068 82.9091 112.945 82.6409 114.018 83.4454C115.091 84.25 115.359 86.1272 114.554 87.2L109.727 93.6363H115.091C116.7 93.6363 117.773 94.7089 117.773 96.318V109.727ZM82.9091 131.182C81.3 131.182 80.2274 132.255 80.2274 133.863V155.318C80.2274 156.927 81.3002 158 82.9091 158C84.518 158 85.5909 156.927 85.5909 155.318V133.863C85.5909 132.255 84.5183 131.182 82.9091 131.182ZM112.409 133.863C112.409 132.255 113.482 131.182 115.091 131.182C116.7 131.182 117.773 132.255 117.773 133.863V155.318C117.773 156.927 116.7 158 115.091 158C113.482 158 112.409 156.927 112.409 155.318V133.863Z" fill="white"/>
</svg>
