<svg width="203" height="204" viewBox="0 0 203 204" fill="none" xmlns="http://www.w3.org/2000/svg">
<path fill-rule="evenodd" clip-rule="evenodd" d="M30 0.877106C13.4315 0.877106 0 14.3085 0 30.8771V173.433C0 190.002 13.4314 203.433 30 203.433H172.556C189.125 203.433 202.556 190.002 202.556 173.433V30.8771C202.556 14.3086 189.125 0.877106 172.556 0.877106H30ZM124.063 115.175H140.338C145.872 115.175 150.103 119.407 150.104 124.94C150.104 130.474 145.872 134.705 140.339 134.705H62.2177C56.6841 134.705 52.4527 130.474 52.4527 124.94C52.4527 119.407 56.6841 115.175 62.2177 115.175V69.6047C62.2177 48.1215 79.7948 30.5444 101.278 30.5444C122.761 30.5444 140.338 48.1215 140.338 69.6047V105.41C140.338 107.363 139.036 108.665 137.083 108.665C135.131 108.665 133.828 107.363 133.828 105.41V69.6047C133.828 51.702 119.181 37.0543 101.278 37.0543C83.3753 37.0543 68.7276 51.702 68.7276 69.6047V116.477C68.7276 118.755 68.7276 121.685 65.4727 121.685H62.2177C60.2649 121.685 58.9628 122.987 58.9628 124.94C58.9628 126.893 60.2647 128.195 62.2177 128.195H140.338C142.291 128.195 143.593 126.893 143.593 124.94C143.593 122.987 142.291 121.685 140.338 121.685H78.4927C76.5399 121.685 75.2377 120.383 75.2377 118.43C75.2377 116.477 76.5396 115.175 78.4927 115.175V85.8799C78.4927 83.9271 79.7945 82.625 81.7476 82.625H104.533C105.835 82.625 106.812 83.6015 107.463 84.5781C108.113 85.5546 107.788 86.8565 107.137 87.833L97.3719 100.853C96.3953 102.155 94.1167 102.48 92.8148 101.504C91.5129 100.527 91.1873 98.249 92.1639 96.9469L98.0228 89.1348H85.0028V115.175H117.553V102.155H107.788C106.486 102.155 105.509 101.178 104.858 100.202C104.207 99.2253 104.533 97.9234 105.184 96.9469L114.949 83.9268C115.925 82.625 118.204 82.2994 119.506 83.2759C120.808 84.2525 121.133 86.5309 120.157 87.833L114.298 95.645H120.808C122.761 95.645 124.063 96.9469 124.063 98.8999V115.175ZM81.7479 141.215C79.7948 141.215 78.493 142.518 78.493 144.47V170.511C78.493 172.464 79.7951 173.766 81.7479 173.766C83.7007 173.766 85.0028 172.463 85.0028 170.511V144.47C85.0028 142.518 83.701 141.215 81.7479 141.215ZM117.553 144.47C117.553 142.518 118.855 141.215 120.808 141.215C122.761 141.215 124.063 142.518 124.063 144.47V170.511C124.063 172.463 122.761 173.766 120.808 173.766C118.855 173.766 117.553 172.464 117.553 170.511V144.47Z" fill="#86D989"/>
</svg>
