<svg width="204" height="204" viewBox="0 0 204 204" fill="none" xmlns="http://www.w3.org/2000/svg">
<path fill-rule="evenodd" clip-rule="evenodd" d="M30.8853 0.877106C14.3167 0.877106 0.885254 14.3085 0.885254 30.8771V173.433C0.885254 190.002 14.3167 203.433 30.8852 203.433H173.441C190.01 203.433 203.441 190.002 203.441 173.433V30.8771C203.441 14.3086 190.01 0.877106 173.441 0.877106H30.8853ZM61.0058 73.7603H61.0078C61.2288 50.9851 79.76 32.5904 102.587 32.5904C125.415 32.5904 143.946 50.9851 144.167 73.7603H144.169V74.1721V81.7603V157.628C144.169 163.151 139.692 167.628 134.169 167.628H71.0058C65.483 167.628 61.0058 163.151 61.0058 157.628V81.7603V73.7603ZM136.167 73.8379L136.169 74.0047V74.1721V157.628C136.169 158.732 135.274 159.628 134.169 159.628H71.0058C69.9013 159.628 69.0058 158.732 69.0058 157.628V74.0051L69.0075 73.8379C69.1859 55.4462 84.1523 40.5904 102.587 40.5904C121.023 40.5904 135.989 55.4462 136.167 73.8379ZM89.5908 74.1721C89.5908 81.3499 95.4096 87.1687 102.587 87.1687C109.765 87.1687 115.584 81.3499 115.584 74.1721C115.584 66.9942 109.765 61.1754 102.587 61.1754C95.4096 61.1754 89.5908 66.9942 89.5908 74.1721ZM102.587 53.1754C90.9913 53.1754 81.5908 62.5759 81.5908 74.1721C81.5908 85.7682 90.9913 95.1687 102.587 95.1687C114.184 95.1687 123.584 85.7682 123.584 74.1721C123.584 62.5759 114.184 53.1754 102.587 53.1754ZM112.506 144.604V138.016H104.01L107.61 134.74C109.314 133.204 110.454 131.836 111.03 130.636C111.63 129.412 111.93 128.104 111.93 126.712C111.93 125.152 111.498 123.772 110.634 122.572C109.77 121.372 108.57 120.448 107.034 119.8C105.498 119.152 103.734 118.828 101.742 118.828C99.1258 118.828 96.8938 119.356 95.0458 120.412C93.1978 121.444 91.7938 122.86 90.8338 124.66L97.2418 127.864C97.6018 127.12 98.1178 126.544 98.7898 126.136C99.4618 125.728 100.182 125.524 100.95 125.524C101.742 125.524 102.342 125.704 102.75 126.064C103.182 126.4 103.398 126.88 103.398 127.504C103.398 128.008 103.266 128.524 103.002 129.052C102.738 129.58 102.21 130.216 101.418 130.96L92.3098 139.384V144.604H112.506Z" fill="#9BEFF4"/>
</svg>
