<svg width="198" height="198" viewBox="0 0 198 198" fill="none" xmlns="http://www.w3.org/2000/svg">
<path fill-rule="evenodd" clip-rule="evenodd" d="M0 0H198V198H0V0ZM63 153.921V147.921V79.6813C63 59.9751 78.9751 44 98.6813 44C118.388 44 134.363 59.9751 134.363 79.6813V147.921V153.921H128.363H69H63ZM98.6813 88.5404C104.493 88.5404 109.205 83.8289 109.205 78.0169C109.205 72.205 104.493 67.4934 98.6813 67.4934C92.8693 67.4934 88.1578 72.205 88.1578 78.0169C88.1578 83.8289 92.8693 88.5404 98.6813 88.5404ZM69 79.6813C69 63.2888 82.2888 50 98.6813 50C115.074 50 128.363 63.2888 128.363 79.6813V141.921V147.921H122.363H75H69V141.921V79.6813ZM115.205 78.0169C115.205 87.1426 107.807 94.5404 98.6813 94.5404C89.5556 94.5404 82.1578 87.1426 82.1578 78.0169C82.1578 68.8913 89.5556 61.4934 98.6813 61.4934C107.807 61.4934 115.205 68.8913 115.205 78.0169ZM107.523 134.904C107.075 134.52 106.381 134.328 105.443 134.328H99.0106L103.555 129.688C104.813 128.365 105.699 127.171 106.211 126.104C106.744 125.016 107.011 123.821 107.011 122.52C107.011 121.261 106.68 120.152 106.019 119.192C105.379 118.211 104.461 117.464 103.267 116.952C102.072 116.419 100.685 116.152 99.1066 116.152C97.8906 116.152 96.6533 116.344 95.3946 116.728C94.1573 117.112 93.0373 117.645 92.0346 118.328C91.6506 118.584 91.384 118.861 91.2346 119.16C91.1066 119.459 91.0426 119.843 91.0426 120.312C91.0426 120.973 91.224 121.549 91.5866 122.04C91.9493 122.509 92.3973 122.744 92.9306 122.744C93.144 122.744 93.3466 122.712 93.5386 122.648C93.7306 122.584 93.944 122.488 94.1786 122.36C94.4346 122.211 94.6053 122.115 94.6906 122.072L95.3306 121.752C96.0133 121.411 96.6106 121.155 97.1226 120.984C97.656 120.792 98.232 120.696 98.8506 120.696C99.6186 120.696 100.205 120.888 100.611 121.272C101.037 121.656 101.251 122.211 101.251 122.936C101.251 124.173 100.547 125.528 99.1386 127L92.3546 134.072C91.6293 134.819 91.2666 135.651 91.2666 136.568C91.2666 137.272 91.4906 137.859 91.9386 138.328C92.3866 138.776 92.9946 139 93.7626 139H105.443C106.381 139 107.075 138.808 107.523 138.424C107.992 138.04 108.227 137.443 108.227 136.632C108.227 135.843 107.992 135.267 107.523 134.904Z" fill="white"/>
</svg>
