<svg width="204" height="204" viewBox="0 0 204 204" fill="none" xmlns="http://www.w3.org/2000/svg">
<path fill-rule="evenodd" clip-rule="evenodd" d="M0.770508 30.8771C0.770508 14.3085 14.202 0.877106 30.7705 0.877106H173.327C189.895 0.877106 203.327 14.3086 203.327 30.8771V173.433C203.327 190.002 189.895 203.433 173.327 203.433H30.7705C14.2019 203.433 0.770508 190.002 0.770508 173.433V30.8771ZM135.45 173.078L124.128 132.83C124.127 132.828 124.126 132.825 124.126 132.823L120.086 118.461L120.085 118.458L120.085 118.457L114.502 98.6102C114.501 98.6064 114.5 98.6026 114.499 98.5991L105.616 67.0224C109.526 65.5075 112.32 61.5778 112.32 56.9794C112.32 51.0739 107.713 46.2696 102.05 46.2696C96.3877 46.2696 91.7805 51.0742 91.7805 56.9794C91.7805 61.5778 94.5742 65.5078 98.4842 67.0224L79.9745 132.823C79.974 132.825 79.9731 132.828 79.9726 132.83L68.6508 173.078C68.2139 174.631 69.067 176.26 70.5563 176.716C72.0476 177.171 73.6073 176.282 74.0446 174.728L75.766 168.609L102.05 150.503L128.335 168.609L130.056 174.728C130.416 176.006 131.537 176.835 132.752 176.835C133.014 176.835 133.281 176.797 133.545 176.716C135.033 176.26 135.887 174.631 135.45 173.078ZM97.4014 56.9788C97.4014 54.3058 99.4868 52.1311 102.05 52.1311C104.613 52.1311 106.698 54.3058 106.698 56.9788C106.698 59.6519 104.613 61.8266 102.05 61.8266C99.4868 61.8266 97.4014 59.6521 97.4014 56.9788ZM102.05 75.1707L108.062 96.5434H96.0377L102.05 75.1707ZM109.711 102.405L113.647 116.399H90.4526L94.3887 102.405H109.711ZM78.217 159.894L84.2989 138.274L96.9508 146.99L78.217 159.894ZM85.9543 132.389L88.8036 122.261H115.297L118.146 132.389L102.05 143.477L85.9543 132.389ZM107.149 146.99L119.801 138.275L125.883 159.895L107.149 146.99ZM88.6887 38.9002C89.7863 40.0446 89.7863 41.9005 88.6887 43.0452C81.3212 50.7282 81.3212 63.2298 88.6887 70.9128C89.7863 72.0572 89.7863 73.9131 88.6887 75.0578C88.1398 75.6298 87.4207 75.9163 86.7015 75.9163C85.982 75.9163 85.2628 75.6301 84.714 75.0578C75.1556 65.0892 75.1556 48.8688 84.7137 38.9002C85.8117 37.7555 87.591 37.7555 88.6887 38.9002ZM119.386 38.9005C118.288 37.7558 116.509 37.7558 115.411 38.9005C114.313 40.0452 114.313 41.9011 115.411 43.0455C122.778 50.7285 122.778 63.2301 115.411 70.913C114.314 72.0572 114.314 73.9134 115.411 75.0578C115.96 75.6301 116.679 75.9163 117.399 75.9163C118.118 75.9163 118.837 75.6298 119.386 75.0578C128.945 65.0892 128.945 48.8688 119.386 38.9005ZM78.5569 28.3339C79.6545 29.4783 79.6545 31.3342 78.5569 32.4789C65.6023 45.9884 65.6023 67.9696 78.5572 81.4793C79.6548 82.6238 79.6548 84.4797 78.5572 85.6244C78.008 86.1964 77.2894 86.4829 76.5697 86.4829C75.8499 86.4829 75.131 86.1967 74.5819 85.6244C67.2452 77.9729 63.2045 67.7998 63.2045 56.9791C63.2045 46.1581 67.2452 35.9854 74.5819 28.3339C75.6799 27.1892 77.4592 27.1892 78.5569 28.3339ZM135.147 35.7543C134.333 34.3763 132.601 33.9468 131.279 34.7957C129.958 35.6449 129.547 37.4504 130.361 38.8284C138.459 52.5374 136.477 70.0761 125.543 81.4788C124.445 82.6235 124.445 84.4794 125.543 85.6241C126.092 86.1964 126.811 86.4826 127.53 86.4826C128.25 86.4826 128.969 86.1964 129.518 85.6241C135.734 79.1412 139.69 70.5624 140.658 61.4681C141.61 52.5147 139.653 43.3825 135.147 35.7543ZM127.53 27.4754C123.914 27.4754 123.908 33.3374 127.53 33.3374C131.147 33.3374 131.153 27.4754 127.53 27.4754Z" fill="#B5B4F5"/>
</svg>
