<svg width="198" height="198" viewBox="0 0 198 198" fill="none" xmlns="http://www.w3.org/2000/svg">
<path fill-rule="evenodd" clip-rule="evenodd" d="M0 0H198V198H0V0ZM126.519 155.032L117.191 123.234L117.19 123.229L113.861 111.882L113.86 111.879L109.26 96.1993L109.258 96.1906L101.939 71.2437C105.161 70.0469 107.463 66.9423 107.463 63.3094C107.463 58.6438 103.667 54.8482 99.0014 54.8482C94.336 54.8482 90.5402 58.644 90.5402 63.3094C90.5402 66.9423 92.8419 70.0471 96.0634 71.2437L80.8132 123.229C80.8128 123.231 80.8121 123.233 80.8116 123.235L71.4836 155.032C71.1237 156.259 71.8266 157.546 73.0536 157.906C74.2822 158.266 75.5673 157.563 75.9276 156.336L77.3458 151.501L99.0016 137.197L120.657 151.501L122.076 156.336C122.372 157.345 123.295 158 124.297 158C124.319 158 124.342 158 124.365 157.999C124.411 157.998 124.458 157.995 124.504 157.991C124.527 157.989 124.55 157.986 124.573 157.984C124.698 157.969 124.824 157.943 124.95 157.906C126.176 157.546 126.879 156.259 126.519 155.032ZM95.1712 63.3089C95.1712 61.1971 96.8893 59.479 99.0012 59.479C101.113 59.479 102.831 61.1971 102.831 63.3089C102.831 65.4207 101.113 67.1389 99.0012 67.1389C96.8893 67.1389 95.1712 65.421 95.1712 63.3089ZM99.0012 77.6812L103.954 94.5665H94.0477L99.0012 77.6812ZM105.313 99.1978L108.556 110.253H89.4462L92.6891 99.1978H105.313ZM79.3652 144.616L84.376 127.536L94.7999 134.421L79.3652 144.616ZM85.74 122.886L88.0875 114.884H109.915L112.263 122.886L99.0012 131.646L85.74 122.886ZM103.203 134.421L113.626 127.536L118.637 144.616L103.203 134.421ZM87.9928 49.0261C88.8972 49.9302 88.8972 51.3964 87.9928 52.3008C81.9227 58.3707 81.9227 68.2474 87.9928 74.3173C88.8972 75.2214 88.8972 76.6876 87.9928 77.592C87.5406 78.0439 86.9481 78.2703 86.3556 78.2703C85.7628 78.2703 85.1703 78.0442 84.7181 77.592C76.843 69.7164 76.843 56.9017 84.7178 49.0261C85.6224 48.1217 87.0884 48.1217 87.9928 49.0261ZM113.284 49.0263C112.38 48.1219 110.914 48.1219 110.009 49.0263C109.105 49.9307 109.105 51.3969 110.009 52.301C116.079 58.3709 116.079 68.2476 110.009 74.3175C109.105 75.2214 109.105 76.6879 110.009 77.592C110.462 78.0442 111.054 78.2703 111.647 78.2703C112.24 78.2703 112.832 78.0439 113.284 77.592C121.16 69.7164 121.16 56.9017 113.284 49.0263ZM79.6453 40.6783C80.5496 41.5824 80.5496 43.0486 79.6453 43.953C68.972 54.626 68.972 71.9921 79.6454 82.6653C80.5498 83.5694 80.5498 85.0356 79.6454 85.94C79.1931 86.392 78.601 86.6183 78.008 86.6183C77.415 86.6183 76.8227 86.3922 76.3703 85.94C70.3256 79.8951 66.9964 71.8579 66.9964 63.3091C66.9964 54.7601 70.3256 46.7232 76.3703 40.6783C77.2748 39.7739 78.7409 39.7739 79.6453 40.6783ZM126.27 46.5407C125.599 45.452 124.172 45.1127 123.083 45.7834C121.995 46.4543 121.656 47.8806 122.326 48.9694C128.998 59.8 127.366 73.6562 118.357 82.6649C117.453 83.5692 117.453 85.0355 118.357 85.9398C118.809 86.392 119.402 86.618 119.995 86.618C120.587 86.618 121.18 86.392 121.632 85.9398C126.753 80.8181 130.013 74.0405 130.81 66.8556C131.594 59.782 129.982 52.5672 126.27 46.5407ZM119.995 40C117.015 40 117.01 44.6313 119.995 44.6313C122.974 44.6313 122.979 40 119.995 40Z" fill="white"/>
</svg>
