<svg width="203" height="203" viewBox="0 0 203 203" fill="none" xmlns="http://www.w3.org/2000/svg">
<path fill-rule="evenodd" clip-rule="evenodd" d="M0 30C0 13.4314 13.4315 0 30 0H172.556C189.125 0 202.556 13.4315 202.556 30V172.556C202.556 189.125 189.125 202.556 172.556 202.556H30C13.4314 202.556 0 189.125 0 172.556V30ZM104.291 123.698V75.0304C104.291 72.9915 102.639 71.339 100.6 71.339C98.5619 71.339 96.9085 72.9915 96.9085 75.0304V123.698C90.4197 125.348 85.6055 131.239 85.6055 138.235C85.6055 146.504 92.3317 153.231 100.6 153.231C108.868 153.231 115.595 146.504 115.595 138.235C115.595 131.239 110.78 125.348 104.291 123.698ZM100.6 145.849C96.4028 145.849 92.9883 142.433 92.9883 138.235C92.9883 134.036 96.4028 130.621 100.6 130.621C104.798 130.621 108.212 134.036 108.212 138.235C108.212 142.433 104.798 145.849 100.6 145.849ZM118.92 60.3224V114.776C126.119 120.403 130.361 129.031 130.361 138.234C130.361 154.647 117.01 168 100.6 168C84.1904 168 70.8398 154.647 70.8398 138.234C70.8398 129.031 75.0821 120.403 82.2803 114.776V60.3224C82.2803 50.2191 90.4985 42 100.6 42C110.702 42 118.92 50.2191 118.92 60.3224ZM78.2227 138.234C78.2227 150.576 88.2606 160.617 100.6 160.617C112.939 160.617 122.978 150.576 122.978 138.234C122.978 130.81 119.306 123.883 113.155 119.704C112.143 119.017 111.538 117.873 111.538 116.65V60.3224C111.538 54.2903 106.631 49.3828 100.6 49.3828C94.5696 49.3828 89.6631 54.2903 89.6631 60.3224V116.65C89.6631 117.873 89.0575 119.017 88.0462 119.704C81.8948 123.883 78.2227 130.81 78.2227 138.234ZM141.435 100.937H129.995C127.956 100.937 126.303 102.589 126.303 104.628C126.303 106.667 127.956 108.319 129.995 108.319H141.435C143.473 108.319 145.127 106.667 145.127 104.628C145.127 102.589 143.473 100.937 141.435 100.937ZM129.995 86.1681H141.435C143.473 86.1681 145.127 87.8205 145.127 89.8595C145.127 91.8984 143.473 93.5509 141.435 93.5509H129.995C127.956 93.5509 126.303 91.8984 126.303 89.8595C126.303 87.8205 127.956 86.1681 129.995 86.1681ZM141.435 71.3996H129.995C127.956 71.3996 126.303 73.052 126.303 75.091C126.303 77.1299 127.956 78.7824 129.995 78.7824H141.435C143.473 78.7824 145.127 77.1299 145.127 75.091C145.127 73.052 143.473 71.3996 141.435 71.3996ZM141.435 64.0139H129.995C127.956 64.0139 126.303 62.3614 126.303 60.3224C126.303 58.2845 127.956 56.631 129.995 56.631H141.435C143.473 56.631 145.127 58.2845 145.127 60.3224C145.127 62.3614 143.473 64.0139 141.435 64.0139Z" fill="#E6B66F"/>
</svg>
