<svg width="61" height="77" viewBox="0 0 61 77" fill="none" xmlns="http://www.w3.org/2000/svg">
<path d="M60.9839 38.5C60.9839 34.3178 57.6201 30.9167 53.4839 30.9167H49.7339V19.5417C49.7339 9.08808 41.3226 0.583374 30.9839 0.583374C20.6451 0.583374 12.2339 9.08808 12.2339 19.5417V30.9167H8.48388C4.34764 30.9167 0.983887 34.3178 0.983887 38.5V68.8334C0.983887 73.0156 4.34764 76.4167 8.48388 76.4167H53.4839C57.6201 76.4167 60.9839 73.0156 60.9839 68.8334V38.5ZM19.7339 19.5417C19.7339 13.2703 24.7814 8.16671 30.9839 8.16671C37.1864 8.16671 42.2339 13.2703 42.2339 19.5417V30.9167H19.7339V19.5417Z" fill="white"/>
</svg>
