<svg width="122" height="226" viewBox="0 0 122 226" fill="none" xmlns="http://www.w3.org/2000/svg">
<path fill-rule="evenodd" clip-rule="evenodd" d="M121.747 225.511L0 225.511L1.43767e-05 61.0608C1.73158e-05 27.4412 27.2541 0.187131 60.8737 0.187134C94.4933 0.187137 121.747 27.4412 121.747 61.0608L121.747 225.511ZM90.8562 56.5179C90.8562 72.5751 77.8394 85.5919 61.7822 85.5919C45.7251 85.5919 32.7082 72.5751 32.7082 56.5179C32.7082 40.4608 45.7251 27.444 61.7822 27.444C77.8394 27.444 90.8562 40.4608 90.8562 56.5179ZM51.4996 191.357C53.7996 194.457 57.133 196.007 61.4996 196.007C65.8663 196.007 69.1996 194.457 71.4996 191.357C73.7996 188.257 74.9496 183.774 74.9496 177.907C74.9496 172.074 73.783 167.607 71.4496 164.507C69.1496 161.407 65.833 159.857 61.4996 159.857C57.133 159.857 53.7996 161.407 51.4996 164.507C49.1996 167.607 48.0496 172.074 48.0496 177.907C48.0496 183.774 49.1996 188.257 51.4996 191.357ZM64.9496 186.457C64.2496 188.19 63.0996 189.057 61.4996 189.057C59.8996 189.057 58.7496 188.19 58.0496 186.457C57.3496 184.724 56.9996 181.874 56.9996 177.907C56.9996 173.94 57.3496 171.107 58.0496 169.407C58.7496 167.674 59.8996 166.807 61.4996 166.807C63.0996 166.807 64.2496 167.674 64.9496 169.407C65.6496 171.14 65.9996 173.974 65.9996 177.907C65.9996 181.874 65.6496 184.724 64.9496 186.457Z" fill="#CADB89"/>
</svg>
