<svg width="122" height="226" viewBox="0 0 122 226" fill="none" xmlns="http://www.w3.org/2000/svg">
<path fill-rule="evenodd" clip-rule="evenodd" d="M121.999 225.511L0.251221 225.511L0.251235 61.0608C0.251238 27.4412 27.5053 0.187131 61.1249 0.187134C94.7445 0.187137 121.999 27.4412 121.999 61.0608L121.999 225.511ZM91.1075 56.5179C91.1075 72.5751 78.0906 85.5919 62.0335 85.5919C45.9763 85.5919 32.9595 72.5751 32.9595 56.5179C32.9595 40.4608 45.9763 27.444 62.0335 27.444C78.0906 27.444 91.1075 40.4608 91.1075 56.5179ZM57.7551 181.786C56.8751 180.586 55.6485 179.759 54.0751 179.306C55.4352 178.799 56.4885 177.999 57.2351 176.906C58.0085 175.786 58.3951 174.492 58.3951 173.026C58.3951 171.479 57.9818 170.119 57.1551 168.946C56.3551 167.772 55.1951 166.866 53.6751 166.226C52.1818 165.586 50.4485 165.266 48.4751 165.266C46.8751 165.266 45.2885 165.506 43.7151 165.986C42.1685 166.466 40.8218 167.132 39.6751 167.986C39.2218 168.332 38.9018 168.692 38.7151 169.066C38.5285 169.439 38.4351 169.906 38.4351 170.466C38.4351 171.292 38.6618 171.999 39.1151 172.586C39.5685 173.146 40.1285 173.426 40.7951 173.426C41.1685 173.426 41.5018 173.372 41.7951 173.266C42.0885 173.132 42.4885 172.932 42.9951 172.666L43.8351 172.266C44.6351 171.866 45.3551 171.546 45.9951 171.306C46.6618 171.066 47.3685 170.946 48.1152 170.946C49.1551 170.946 49.9685 171.226 50.5551 171.786C51.1418 172.319 51.4352 173.079 51.4352 174.066C51.4352 174.999 51.1018 175.679 50.4352 176.106C49.7685 176.532 48.7018 176.746 47.2351 176.746H45.4751C44.6751 176.746 44.0485 177.026 43.5951 177.586C43.1418 178.146 42.9151 178.812 42.9151 179.586C42.9151 180.359 43.1418 181.026 43.5951 181.586C44.0485 182.146 44.6751 182.426 45.4751 182.426H47.9551C49.4751 182.426 50.5685 182.652 51.2351 183.106C51.9018 183.559 52.2351 184.306 52.2351 185.346C52.2351 186.466 51.9018 187.266 51.2351 187.746C50.5951 188.226 49.5285 188.466 48.0351 188.466C47.1818 188.466 46.4085 188.359 45.7151 188.146C45.0485 187.906 44.2885 187.572 43.4352 187.146C43.2485 187.066 43.0751 186.999 42.9151 186.946C42.7818 186.866 42.6618 186.799 42.5551 186.746C42.0485 186.479 41.6485 186.292 41.3551 186.186C41.0618 186.052 40.7285 185.986 40.3551 185.986C39.6885 185.986 39.1285 186.279 38.6751 186.866C38.2218 187.426 37.9951 188.119 37.9951 188.946C37.9951 189.479 38.0885 189.946 38.2751 190.346C38.4618 190.719 38.7818 191.079 39.2351 191.426C40.4085 192.306 41.7951 192.986 43.3951 193.466C44.9951 193.919 46.6618 194.146 48.3951 194.146C50.5551 194.146 52.4352 193.826 54.0351 193.186C55.6618 192.519 56.9151 191.586 57.7952 190.386C58.6751 189.186 59.1152 187.772 59.1152 186.146C59.1152 184.439 58.6618 182.986 57.7551 181.786ZM85.0195 165.906C84.4862 166.226 84.0729 166.706 83.7795 167.346L75.9395 184.386L68.0595 167.346C67.7662 166.706 67.3395 166.226 66.7795 165.906C66.2462 165.586 65.6595 165.426 65.0195 165.426C64.0329 165.426 63.1395 165.746 62.3395 166.386C61.5395 166.999 61.1395 167.759 61.1395 168.666C61.1395 169.172 61.2462 169.639 61.4595 170.066L72.0195 191.866C72.3662 192.586 72.8862 193.146 73.5795 193.546C74.2729 193.919 75.0195 194.106 75.8195 194.106C76.6195 194.106 77.3662 193.919 78.0595 193.546C78.7529 193.146 79.2729 192.586 79.6195 191.866L90.1795 170.066C90.4195 169.586 90.5395 169.119 90.5395 168.666C90.5395 167.732 90.1529 166.959 89.3795 166.346C88.6062 165.732 87.7395 165.426 86.7795 165.426C86.1395 165.426 85.5529 165.586 85.0195 165.906Z" fill="#FF7373"/>
</svg>
