<svg width="122" height="226" viewBox="0 0 122 226" fill="none" xmlns="http://www.w3.org/2000/svg">
<path fill-rule="evenodd" clip-rule="evenodd" d="M121.984 225.511L0.236572 225.511L0.236587 61.0608C0.23659 27.4412 27.4907 0.187131 61.1103 0.187134C94.7299 0.187137 121.984 27.4412 121.984 61.0608L121.984 225.511ZM91.0928 56.5179C91.0928 72.5751 78.0759 85.5919 62.0188 85.5919C45.9617 85.5919 32.9448 72.5751 32.9448 56.5179C32.9448 40.4608 45.9617 27.444 62.0188 27.444C78.0759 27.444 91.0928 40.4608 91.0928 56.5179ZM42.0808 178.833C41.5741 178.326 40.8808 178.073 40.0008 178.073H33.4008C32.5208 178.073 31.8408 178.299 31.3608 178.753C30.8808 179.179 30.6408 179.793 30.6408 180.593C30.6408 181.393 30.8808 182.019 31.3608 182.473C31.8408 182.899 32.5208 183.113 33.4008 183.113H36.2808V188.353C35.0275 188.619 33.7608 188.753 32.4808 188.753C29.8141 188.753 27.8275 188.033 26.5208 186.593C25.2408 185.126 24.6008 182.886 24.6008 179.873C24.6008 176.939 25.2141 174.766 26.4408 173.353C27.6941 171.939 29.5875 171.233 32.1208 171.233C33.1341 171.233 34.0675 171.353 34.9208 171.593C35.8008 171.833 36.7341 172.219 37.7208 172.753C38.2008 173.046 38.5875 173.259 38.8808 173.393C39.2008 173.499 39.5741 173.553 40.0008 173.553C40.6408 173.553 41.1875 173.273 41.6408 172.713C42.0941 172.126 42.3208 171.419 42.3208 170.593C42.3208 170.006 42.2141 169.526 42.0008 169.153C41.8141 168.779 41.4941 168.433 41.0408 168.113C39.7608 167.206 38.3741 166.539 36.8808 166.113C35.4141 165.659 33.7475 165.433 31.8808 165.433C28.9208 165.433 26.3341 166.019 24.1208 167.193C21.9075 168.366 20.2008 170.046 19.0008 172.233C17.8008 174.393 17.2008 176.939 17.2008 179.873C17.2008 182.859 17.8008 185.446 19.0008 187.633C20.2008 189.793 21.9208 191.459 24.1608 192.633C26.4275 193.779 29.0941 194.353 32.1608 194.353C33.2541 194.353 34.4275 194.273 35.6808 194.113C36.9608 193.979 38.1208 193.779 39.1608 193.513C40.2008 193.219 40.9741 192.873 41.4808 192.473C42.0141 192.073 42.3741 191.526 42.5608 190.833C42.7741 190.113 42.8808 189.086 42.8808 187.753V180.793C42.8808 179.966 42.6141 179.313 42.0808 178.833ZM71.8464 166.593C71.2064 165.926 70.3798 165.593 69.3664 165.593C68.3531 165.593 67.5264 165.926 66.8864 166.593C66.2731 167.233 65.9664 168.099 65.9664 169.193V181.913L53.8064 166.793C53.1664 165.993 52.2731 165.593 51.1264 165.593C50.1131 165.593 49.2864 165.926 48.6464 166.593C48.0064 167.259 47.6864 168.126 47.6864 169.193V190.593C47.6864 191.686 48.0064 192.566 48.6464 193.233C49.2864 193.899 50.1131 194.233 51.1264 194.233C52.1664 194.233 52.9931 193.899 53.6064 193.233C54.2198 192.566 54.5264 191.686 54.5264 190.593V177.873L66.6864 193.033C67.2998 193.833 68.2064 194.233 69.4064 194.233C70.4198 194.233 71.2464 193.899 71.8864 193.233C72.5264 192.566 72.8464 191.686 72.8464 190.593V169.193C72.8464 168.126 72.5131 167.259 71.8464 166.593ZM78.8399 193.113C79.4265 193.699 80.2665 193.993 81.3599 193.993H89.4399C92.5865 193.993 95.2799 193.433 97.5199 192.313C99.7865 191.193 101.507 189.579 102.68 187.473C103.88 185.339 104.48 182.806 104.48 179.873C104.48 176.966 103.88 174.459 102.68 172.353C101.48 170.246 99.7465 168.633 97.4799 167.513C95.2399 166.366 92.5599 165.793 89.4399 165.793H81.3599C80.2665 165.793 79.4265 166.086 78.8399 166.673C78.2532 167.259 77.9599 168.099 77.9599 169.193V190.593C77.9599 191.686 78.2532 192.526 78.8399 193.113ZM95.0799 186.073C93.7199 187.406 91.6665 188.073 88.9199 188.073H85.3199V171.713H88.9199C91.6665 171.713 93.7199 172.379 95.0799 173.713C96.4665 175.046 97.1599 177.099 97.1599 179.873C97.1599 182.646 96.4665 184.713 95.0799 186.073Z" fill="#2E2E2E"/>
</svg>
