<svg width="459" height="466" viewBox="0 0 459 466" fill="none" xmlns="http://www.w3.org/2000/svg">
<path fill-rule="evenodd" clip-rule="evenodd" d="M422.403 264.585C409.154 343.724 347.081 406.318 268.209 420.343V456.821C366.998 442.142 444.964 363.638 458.827 264.585H422.403ZM458.555 199.368C443.969 101.209 366.369 23.608 268.209 9.02288V45.5008C346.452 59.4143 408.163 121.125 422.077 199.368H458.555ZM202.047 420.509C123.041 406.871 60.7061 344.537 47.0688 265.53H10.6181C24.8895 364.452 103.125 442.688 202.047 456.959V420.509ZM202.047 45.3352C123.041 58.9726 60.7062 121.307 47.0688 200.313H10.6181C24.8896 101.392 103.125 23.156 202.047 8.88452V45.3352ZM8.28687 232.922L8.28696 232.717L8.28696 233.127L8.28687 232.922Z" fill="#FAFAFA"/>
<path d="M253.937 40.373H244.361L228.345 16.069V40.373H218.769V0.781046H228.345L244.361 25.309V0.781046H253.937V40.373Z" fill="#D65C4C"/>
<path d="M252.299 453.105C252.299 455.345 251.719 457.405 250.559 459.285C249.439 461.165 247.759 462.665 245.519 463.785C243.319 464.905 240.639 465.465 237.479 465.465C232.719 465.465 228.799 464.305 225.719 461.985C222.639 459.665 220.959 456.425 220.679 452.265H231.599C231.759 453.865 232.319 455.125 233.279 456.045C234.279 456.965 235.539 457.425 237.059 457.425C238.379 457.425 239.419 457.065 240.179 456.345C240.939 455.625 241.319 454.665 241.319 453.465C241.319 452.385 240.959 451.485 240.239 450.765C239.559 450.045 238.699 449.465 237.659 449.025C236.619 448.545 235.179 447.985 233.339 447.345C230.659 446.425 228.459 445.545 226.739 444.705C225.059 443.825 223.599 442.545 222.359 440.865C221.159 439.145 220.559 436.925 220.559 434.205C220.559 431.685 221.199 429.505 222.479 427.665C223.759 425.825 225.519 424.425 227.759 423.465C230.039 422.465 232.639 421.965 235.559 421.965C240.279 421.965 244.019 423.085 246.779 425.325C249.579 427.565 251.159 430.645 251.519 434.565H240.419C240.219 433.165 239.699 432.065 238.859 431.265C238.059 430.425 236.959 430.005 235.559 430.005C234.359 430.005 233.379 430.325 232.619 430.965C231.899 431.605 231.539 432.545 231.539 433.785C231.539 434.785 231.859 435.645 232.499 436.365C233.179 437.045 234.019 437.605 235.019 438.045C236.019 438.485 237.459 439.045 239.339 439.725C242.059 440.645 244.279 441.565 245.999 442.485C247.719 443.365 249.199 444.665 250.439 446.385C251.679 448.105 252.299 450.345 252.299 453.105Z" fill="white"/>
<path d="M441.154 219.597V228.477H455.494V236.217H441.154V245.637H457.294V253.857H430.894V211.437H457.294V219.597H441.154Z" fill="white"/>
<path d="M50.0337 214.507L41.5837 249.857H30.9837L25.3337 226.207L19.6337 249.857H9.03366L0.58366 214.507H9.88366L14.4337 240.107L20.6337 214.507H29.9837L36.1837 240.107L40.7837 214.507H50.0337Z" fill="white"/>
</svg>
